<svg width="188" height="63" viewBox="0 0 188 63" fill="none" xmlns="http://www.w3.org/2000/svg">
<path d="M85.402 6.54028L73.1477 25.8168H69.6228L65.079 6.54028H68.7691L72.2114 21.3557L81.6844 6.54028H85.402Z" fill="black"/>
<path d="M89.4454 26.0096C88.0134 26.0096 86.7558 25.7434 85.6727 25.211C84.6079 24.6602 83.7817 23.8984 83.1943 22.9254C82.6068 21.9523 82.313 20.8233 82.313 19.5382C82.313 17.9043 82.6802 16.4356 83.4146 15.1321C84.1673 13.8287 85.2045 12.8098 86.5264 12.0754C87.8665 11.3227 89.3719 10.9464 91.0426 10.9464C92.4746 10.9464 93.7321 11.2126 94.8153 11.745C95.8984 12.2774 96.7337 13.0301 97.3212 14.0031C97.9087 14.9761 98.2024 16.1051 98.2024 17.3902C98.2024 19.0241 97.8261 20.4928 97.0734 21.7963C96.3207 23.0998 95.2742 24.1278 93.9341 24.8806C92.6122 25.6333 91.116 26.0096 89.4454 26.0096ZM89.6657 23.063C90.6387 23.063 91.5015 22.8336 92.2542 22.3746C93.0253 21.8973 93.6311 21.2455 94.0717 20.4194C94.5124 19.5749 94.7327 18.6203 94.7327 17.5555C94.7327 16.3989 94.393 15.4993 93.7138 14.8567C93.0345 14.1958 92.0798 13.8654 90.8498 13.8654C89.8768 13.8654 89.0048 14.104 88.2337 14.5814C87.481 15.0403 86.8843 15.6921 86.4437 16.5366C86.0031 17.3627 85.7828 18.3082 85.7828 19.373C85.7828 20.5296 86.1225 21.4383 86.8017 22.0992C87.481 22.7418 88.4356 23.063 89.6657 23.063Z" fill="black"/>
<path d="M116.237 11.1116L106.103 27.1111C105.093 28.7083 104.129 29.8098 103.211 30.4157C102.312 31.0399 101.21 31.352 99.9066 31.352C99.1722 31.352 98.4471 31.2326 97.7311 30.994C97.0151 30.7553 96.4551 30.4432 96.0513 30.0577L97.7586 27.5517C98.4379 28.1759 99.2457 28.488 100.182 28.488C100.769 28.488 101.283 28.332 101.724 28.0199C102.165 27.7261 102.614 27.2121 103.073 26.4778L103.542 25.7618L100.072 11.1116H103.514L105.992 22.0166L112.794 11.1116H116.237Z" fill="black"/>
<path d="M132.332 11.1116L129.413 25.8168H126.136L126.439 24.3023C125.154 25.4405 123.556 26.0096 121.647 26.0096C120.435 26.0096 119.334 25.7526 118.343 25.2385C117.37 24.7245 116.598 23.981 116.029 23.008C115.46 22.0166 115.176 20.86 115.176 19.5382C115.176 17.9043 115.534 16.4356 116.25 15.1321C116.984 13.8103 117.975 12.7822 119.224 12.0479C120.491 11.3135 121.904 10.9464 123.465 10.9464C125.815 10.9464 127.485 11.7266 128.477 13.2871L128.89 11.1116H132.332ZM122.528 23.063C123.501 23.063 124.364 22.8336 125.117 22.3746C125.888 21.8973 126.494 21.2455 126.934 20.4194C127.375 19.5749 127.595 18.6203 127.595 17.5555C127.595 16.3989 127.256 15.4993 126.576 14.8567C125.897 14.1958 124.942 13.8654 123.712 13.8654C122.739 13.8654 121.867 14.104 121.096 14.5814C120.344 15.0403 119.747 15.6921 119.306 16.5366C118.866 17.3627 118.645 18.3082 118.645 19.373C118.645 20.5296 118.985 21.4383 119.664 22.0992C120.344 22.7418 121.298 23.063 122.528 23.063Z" fill="black"/>
<path d="M151.458 11.1116L148.952 23.5863C148.402 26.285 147.383 28.2494 145.896 29.4794C144.409 30.7278 142.398 31.352 139.865 31.352C136.982 31.352 134.688 30.6819 132.98 29.3417L134.77 26.7531C135.339 27.2488 136.092 27.6435 137.028 27.9373C137.983 28.2494 139.002 28.4054 140.085 28.4054C141.664 28.4054 142.876 28.0566 143.72 27.359C144.565 26.6613 145.124 25.5965 145.4 24.1646L145.538 23.4486C144.216 24.5868 142.609 25.1559 140.718 25.1559C139.452 25.1559 138.313 24.9081 137.304 24.4124C136.312 23.9167 135.532 23.2099 134.963 22.292C134.412 21.3741 134.137 20.3001 134.137 19.07C134.137 17.5646 134.495 16.1969 135.211 14.9669C135.927 13.7185 136.918 12.7363 138.185 12.0203C139.47 11.3043 140.902 10.9464 142.481 10.9464C143.637 10.9464 144.675 11.1667 145.593 11.6073C146.511 12.0295 147.208 12.6721 147.686 13.5349L148.154 11.1116H151.458ZM141.489 22.2369C142.462 22.2369 143.325 22.0258 144.078 21.6035C144.849 21.1629 145.446 20.5663 145.868 19.8136C146.309 19.0425 146.529 18.1797 146.529 17.225C146.529 16.1786 146.189 15.3616 145.51 14.7741C144.831 14.1683 143.885 13.8654 142.674 13.8654C141.701 13.8654 140.829 14.0857 140.058 14.5263C139.286 14.9485 138.681 15.5452 138.24 16.3163C137.818 17.069 137.607 17.9226 137.607 18.8773C137.607 19.9054 137.946 20.7223 138.626 21.3282C139.323 21.934 140.278 22.2369 141.489 22.2369Z" fill="black"/>
<path d="M168.431 17.3902C168.431 18.1062 168.357 18.8038 168.211 19.4831H156.534C156.59 21.8881 158.003 23.0906 160.775 23.0906C161.62 23.0906 162.409 22.9621 163.144 22.7051C163.878 22.4297 164.502 22.0533 165.016 21.576L166.448 23.9718C165.695 24.6511 164.787 25.1651 163.722 25.5139C162.675 25.8444 161.574 26.0096 160.417 26.0096C158.949 26.0096 157.664 25.7434 156.562 25.211C155.479 24.6786 154.644 23.9259 154.056 22.9529C153.469 21.9615 153.175 20.8233 153.175 19.5382C153.175 17.9043 153.533 16.4356 154.249 15.1321C154.983 13.8103 155.993 12.7822 157.278 12.0479C158.581 11.3135 160.041 10.9464 161.657 10.9464C163.713 10.9464 165.356 11.5247 166.586 12.6812C167.816 13.8195 168.431 15.3891 168.431 17.3902ZM161.491 13.7001C160.335 13.7001 159.343 14.0122 158.517 14.6364C157.709 15.2606 157.149 16.1143 156.837 17.1975H165.264C165.282 16.0959 164.943 15.2423 164.245 14.6364C163.566 14.0122 162.648 13.7001 161.491 13.7001Z" fill="black"/>
<path d="M171.491 26.0096C170.886 26.0096 170.372 25.8077 169.949 25.4038C169.545 24.9999 169.343 24.4858 169.343 23.8616C169.343 23.164 169.573 22.5857 170.032 22.1268C170.491 21.6678 171.06 21.4383 171.739 21.4383C172.345 21.4383 172.85 21.6403 173.254 22.0441C173.658 22.448 173.86 22.9621 173.86 23.5863C173.86 24.3023 173.621 24.8897 173.144 25.3487C172.685 25.7893 172.134 26.0096 171.491 26.0096ZM178.348 26.0096C177.743 26.0096 177.228 25.8077 176.806 25.4038C176.402 24.9999 176.2 24.4858 176.2 23.8616C176.2 23.164 176.43 22.5857 176.889 22.1268C177.348 21.6678 177.917 21.4383 178.596 21.4383C179.202 21.4383 179.707 21.6403 180.111 22.0441C180.515 22.448 180.717 22.9621 180.717 23.5863C180.717 24.3023 180.478 24.8897 180.001 25.3487C179.542 25.7893 178.991 26.0096 178.348 26.0096ZM185.233 26.0096C184.627 26.0096 184.113 25.8077 183.691 25.4038C183.287 24.9999 183.085 24.4858 183.085 23.8616C183.085 23.164 183.314 22.5857 183.773 22.1268C184.232 21.6678 184.801 21.4383 185.481 21.4383C186.087 21.4383 186.591 21.6403 186.995 22.0441C187.399 22.448 187.601 22.9621 187.601 23.5863C187.601 24.3023 187.362 24.8897 186.885 25.3487C186.426 25.7893 185.875 26.0096 185.233 26.0096Z" fill="black"/>
<path d="M74.3042 42.7871C75.5159 42.7871 76.6083 43.0441 77.5813 43.5582C78.5726 44.0722 79.3529 44.8157 79.922 45.7887C80.4911 46.7617 80.7757 47.9091 80.7757 49.231C80.7757 50.8649 80.4085 52.3428 79.6741 53.6646C78.9582 54.968 77.9668 55.9961 76.7 56.7488C75.4517 57.4832 74.0564 57.8503 72.5143 57.8503C71.3577 57.8503 70.348 57.6484 69.4851 57.2445C68.6223 56.8406 67.9522 56.2531 67.4748 55.4821L65.9878 62.9999H62.5455L66.5385 42.9523H69.8156L69.5126 44.4944C70.7977 43.3562 72.3949 42.7871 74.3042 42.7871ZM72.2389 54.9038C73.2119 54.9038 74.0748 54.6743 74.8275 54.2153C75.5985 53.738 76.2044 53.0863 76.645 52.2601C77.0856 51.4156 77.3059 50.461 77.3059 49.3962C77.3059 48.2396 76.9662 47.34 76.287 46.6975C75.6077 46.0366 74.6531 45.7061 73.423 45.7061C72.45 45.7061 71.578 45.9448 70.8069 46.4221C70.0542 46.8811 69.4576 47.5328 69.017 48.3773C68.5764 49.2034 68.3561 50.1489 68.3561 51.2137C68.3561 52.3703 68.6957 53.279 69.375 53.94C70.0542 54.5825 71.0089 54.9038 72.2389 54.9038Z" fill="black"/>
<path d="M99.7919 42.9523L96.8729 57.6576H93.5959L93.8988 56.143C92.6137 57.2812 91.0165 57.8503 89.1072 57.8503C87.8955 57.8503 86.794 57.5933 85.8026 57.0793C84.8296 56.5652 84.0586 55.8217 83.4894 54.8487C82.9203 53.8573 82.6358 52.7008 82.6358 51.3789C82.6358 49.745 82.9938 48.2763 83.7097 46.9729C84.4441 45.651 85.4354 44.623 86.6838 43.8886C87.9506 43.1543 89.3642 42.7871 90.9247 42.7871C93.2746 42.7871 94.9452 43.5673 95.9366 45.1278L96.3497 42.9523H99.7919ZM89.9884 54.9038C90.9614 54.9038 91.8242 54.6743 92.577 54.2153C93.348 53.738 93.9538 53.0863 94.3945 52.2601C94.8351 51.4156 95.0554 50.461 95.0554 49.3962C95.0554 48.2396 94.7157 47.34 94.0365 46.6975C93.3572 46.0366 92.4025 45.7061 91.1725 45.7061C90.1995 45.7061 89.3275 45.9448 88.5564 46.4221C87.8037 46.8811 87.2071 47.5328 86.7665 48.3773C86.3258 49.2034 86.1055 50.1489 86.1055 51.2137C86.1055 52.3703 86.4452 53.279 87.1244 53.94C87.8037 54.5825 88.7584 54.9038 89.9884 54.9038Z" fill="black"/>
<path d="M106.389 57.8503C105.14 57.8503 103.947 57.7035 102.809 57.4097C101.689 57.0976 100.817 56.7121 100.192 56.2531L101.624 53.6095C102.23 54.0501 102.992 54.3989 103.91 54.6559C104.828 54.913 105.774 55.0415 106.747 55.0415C107.848 55.0415 108.674 54.8946 109.225 54.6009C109.794 54.2888 110.079 53.8482 110.079 53.279C110.079 52.8384 109.84 52.5172 109.363 52.3152C108.904 52.1133 108.169 51.9022 107.16 51.6818C106.113 51.4799 105.25 51.2688 104.571 51.0485C103.91 50.8098 103.332 50.4335 102.836 49.9194C102.359 49.387 102.12 48.6619 102.12 47.7439C102.12 46.2202 102.754 45.0177 104.02 44.1365C105.305 43.2369 107.004 42.7871 109.115 42.7871C110.124 42.7871 111.107 42.9064 112.061 43.1451C113.016 43.3654 113.796 43.6683 114.402 44.0538L113.135 46.6975C112.529 46.312 111.841 46.0274 111.07 45.8438C110.317 45.6602 109.555 45.5684 108.784 45.5684C107.701 45.5684 106.875 45.7337 106.306 46.0641C105.755 46.3946 105.48 46.826 105.48 47.3584C105.48 47.8357 105.718 48.1845 106.196 48.4048C106.691 48.6068 107.453 48.8179 108.481 49.0382C109.509 49.2402 110.354 49.4605 111.015 49.6991C111.676 49.9194 112.245 50.2866 112.722 50.8006C113.2 51.3147 113.438 52.0123 113.438 52.8935C113.438 54.4724 112.796 55.6932 111.511 56.5561C110.225 57.4189 108.518 57.8503 106.389 57.8503Z" fill="black"/>
<path d="M127.235 37.2244H130.677L126.602 57.6576H123.16L127.235 37.2244Z" fill="black"/>
<path d="M138.39 57.8503C136.958 57.8503 135.7 57.5841 134.617 57.0517C133.552 56.501 132.726 55.7391 132.139 54.7661C131.551 53.7931 131.257 52.664 131.257 51.3789C131.257 49.745 131.625 48.2763 132.359 46.9729C133.112 45.6694 134.149 44.6505 135.471 43.9161C136.811 43.1634 138.316 42.7871 139.987 42.7871C141.419 42.7871 142.676 43.0533 143.76 43.5857C144.843 44.1181 145.678 44.8708 146.266 45.8438C146.853 46.8168 147.147 47.9459 147.147 49.231C147.147 50.8649 146.77 52.3336 146.018 53.637C145.265 54.9405 144.219 55.9686 142.878 56.7213C141.557 57.474 140.06 57.8503 138.39 57.8503ZM138.61 54.9038C139.583 54.9038 140.446 54.6743 141.199 54.2153C141.97 53.738 142.576 53.0863 143.016 52.2601C143.457 51.4156 143.677 50.461 143.677 49.3962C143.677 48.2396 143.337 47.34 142.658 46.6975C141.979 46.0366 141.024 45.7061 139.794 45.7061C138.821 45.7061 137.949 45.9448 137.178 46.4221C136.425 46.8811 135.829 47.5328 135.388 48.3773C134.948 49.2034 134.727 50.1489 134.727 51.2137C134.727 52.3703 135.067 53.279 135.746 53.94C136.425 54.5825 137.38 54.9038 138.61 54.9038Z" fill="black"/>
<path d="M151.788 42.9523H155.23L152.311 57.6576H148.869L151.788 42.9523ZM154.294 40.529C153.688 40.529 153.192 40.3454 152.807 39.9782C152.421 39.5927 152.228 39.1337 152.228 38.6013C152.228 37.9771 152.44 37.4539 152.862 37.0317C153.302 36.6094 153.872 36.3983 154.569 36.3983C155.175 36.3983 155.671 36.5819 156.056 36.949C156.442 37.2979 156.634 37.7293 156.634 38.2433C156.634 38.9226 156.414 39.4734 155.974 39.8956C155.551 40.3179 154.991 40.529 154.294 40.529Z" fill="black"/>
<path d="M167.762 42.7871C169.414 42.7871 170.717 43.2185 171.672 44.0814C172.645 44.9442 173.131 46.1651 173.131 47.7439C173.131 48.1845 173.067 48.772 172.939 49.5064L171.314 57.6576H167.872L169.469 49.589C169.542 49.2218 169.579 48.8454 169.579 48.4599C169.579 46.6791 168.597 45.7887 166.632 45.7887C165.366 45.7887 164.319 46.1467 163.493 46.8627C162.667 47.5603 162.107 48.616 161.813 50.0296L160.271 57.6576H156.829L159.748 42.9523H163.025L162.695 44.5771C164.016 43.3837 165.705 42.7871 167.762 42.7871Z" fill="black"/>
<path d="M43.4016 22.0958C44.5948 21.3375 45.6669 20.4185 46.6011 19.3936C48.63 17.1718 49.9991 14.4564 50.5474 11.7921C51.092 9.16176 50.8349 6.58442 49.6303 4.59515C49.2881 4.02409 48.8588 3.50219 48.3483 3.03324C46.8847 1.70013 45.2093 1.06477 43.5226 1.04775C41.7508 1.03452 39.9544 1.70013 38.366 2.96516C37.6891 3.50597 37.1312 4.12809 36.6982 4.8145C35.5826 6.56929 35.2441 8.74765 35.6128 11.0262C35.9853 13.3388 37.084 15.7574 38.835 17.9489C40.0527 19.4768 41.5844 20.895 43.4073 22.092L43.4016 22.0958ZM43.1444 4.0014C44.4775 4.0014 45.6877 4.5422 46.5595 5.41771C47.435 6.29321 47.9758 7.49774 47.9758 8.83274C47.9758 10.1659 47.435 11.3761 46.5595 12.2478C45.6839 13.1233 44.4794 13.6641 43.1444 13.6641C41.8113 13.6641 40.6011 13.1233 39.7294 12.2478C38.8539 11.3723 38.3131 10.1677 38.3131 8.83274C38.3131 7.49963 38.8539 6.28943 39.7294 5.41771C40.6049 4.5422 41.8094 4.0014 43.1444 4.0014ZM45.8636 6.11357C45.1696 5.4196 44.2033 4.98468 43.1444 4.98468C42.0798 4.98468 41.1192 5.41393 40.4253 6.11357C39.7313 6.80755 39.2964 7.77382 39.2964 8.83274C39.2964 9.89734 39.7256 10.8579 40.4253 11.5519C41.1192 12.2459 42.0855 12.6808 43.1444 12.6808C44.209 12.6808 45.1696 12.2516 45.8636 11.5519C46.5576 10.8579 46.9925 9.89167 46.9925 8.83274C46.9906 7.76814 46.5632 6.80755 45.8636 6.11357ZM47.3782 20.0952C46.3193 21.2524 45.0921 22.2905 43.706 23.132C43.5396 23.2568 43.3033 23.2738 43.1142 23.1528C41.072 21.8537 39.3607 20.2918 38.0105 18.5975C36.1517 16.266 34.9775 13.6792 34.5785 11.187C34.1719 8.66067 34.552 6.2327 35.8095 4.251C36.3068 3.47004 36.9384 2.75905 37.7136 2.1445C39.4855 0.733856 41.5144 -0.0130636 43.5302 0.000172929C45.4741 0.0171914 47.3915 0.737639 49.0555 2.25606C49.6398 2.78741 50.1276 3.38873 50.5266 4.04867C51.8787 6.2743 52.1699 9.11827 51.578 11.9925C50.9899 14.8365 49.5358 17.7277 47.3839 20.0857L47.3782 20.0952Z" fill="#733439"/>
<path d="M8.97917 61.6815C10.1723 60.9232 11.2445 60.0042 12.1786 58.9793C14.2076 56.7575 15.5766 54.0421 16.125 51.3778C16.6696 48.7475 16.4124 46.1701 15.2079 44.1808C14.8657 43.6098 14.4364 43.0879 13.9259 42.6189C12.4623 41.2858 10.7869 40.6505 9.10019 40.6334C7.32838 40.6202 5.53199 41.2858 3.9436 42.5509C3.26665 43.0917 2.70882 43.7138 2.2758 44.4002C1.16014 46.155 0.821665 48.3333 1.1904 50.6119C1.56291 52.9245 2.66155 55.343 4.41256 57.5346C5.63032 59.0625 7.16198 60.4807 8.98484 61.6777L8.97917 61.6815ZM8.722 43.5871C10.0551 43.5871 11.2653 44.1279 12.137 45.0034C13.0125 45.8789 13.5533 47.0834 13.5533 48.4184C13.5533 49.7515 13.0125 50.9617 12.137 51.8335C11.2615 52.709 10.057 53.2498 8.722 53.2498C7.38889 53.2498 6.17869 52.709 5.30697 51.8335C4.43146 50.958 3.89066 49.7534 3.89066 48.4184C3.89066 47.0853 4.43146 45.8751 5.30697 45.0034C6.18247 44.1279 7.387 43.5871 8.722 43.5871ZM11.4412 45.6993C10.7472 45.0053 9.78093 44.5704 8.722 44.5704C7.6574 44.5704 6.69681 44.9996 6.00283 45.6993C5.30886 46.3932 4.87394 47.3595 4.87394 48.4184C4.87394 49.483 5.30319 50.4436 6.00283 51.1376C6.69681 51.8316 7.66308 52.2665 8.722 52.2665C9.7866 52.2665 10.7472 51.8372 11.4412 51.1376C12.1351 50.4436 12.5701 49.4774 12.5701 48.4184C12.5682 47.3538 12.1408 46.3932 11.4412 45.6993ZM12.9558 59.6809C11.8969 60.8381 10.6697 61.8762 9.28361 62.7177C9.11721 62.8425 8.88084 62.8595 8.69175 62.7385C6.64953 61.4394 4.93824 59.8775 3.58811 58.1832C1.72932 55.8517 0.555043 53.2649 0.156055 50.7727C-0.250496 48.2464 0.129582 45.8184 1.38706 43.8367C1.88437 43.0557 2.51594 42.3447 3.29123 41.7302C5.06304 40.3195 7.09201 39.5726 9.10775 39.5859C11.0516 39.6029 12.969 40.3233 14.6331 41.8418C15.2174 42.3731 15.7052 42.9744 16.1042 43.6344C17.4562 45.86 17.7474 48.704 17.1556 51.5782C16.5675 54.4222 15.1134 57.3134 12.9615 59.6714L12.9558 59.6809Z" fill="#733439"/>
<path fill-rule="evenodd" clip-rule="evenodd" d="M43.2896 21.9459C43.2901 21.946 43.2904 21.946 43.2432 22.5897C43.196 23.2334 43.196 23.2334 43.196 23.2334L43.1916 23.2331L43.1757 23.232C43.1613 23.231 43.1393 23.2295 43.1101 23.2276C43.0516 23.2239 42.9642 23.2187 42.8501 23.2126C42.622 23.2005 42.2877 23.1853 41.8664 23.1731C41.0234 23.1486 39.834 23.1361 38.4519 23.1843C35.6782 23.281 32.1685 23.6208 29.1301 24.5769C26.0652 25.5412 23.6545 27.0755 22.7926 29.4366C21.9359 31.7837 22.5096 35.2328 26.1265 40.2858C29.8389 45.4722 30.7267 49.5837 29.7352 52.8338C28.7487 56.0673 25.967 58.2254 22.8617 59.6682C19.7434 61.1169 16.1792 61.9017 13.4165 62.326C12.0308 62.5388 10.8374 62.6622 9.98927 62.7326C9.56505 62.7677 9.22679 62.7896 8.99356 62.8028C8.87693 62.8094 8.78653 62.8138 8.72474 62.8165C8.69385 62.8179 8.6701 62.8189 8.6538 62.8195L8.63498 62.8203L8.62832 62.8205C8.62787 62.8205 8.62754 62.8205 8.6056 62.1755C8.58951 61.7024 8.58517 61.5763 8.58402 61.5426C8.5836 61.5304 8.5836 61.5304 8.5836 61.5304L8.58427 61.5304L8.58773 61.5303L8.60313 61.5297C8.61712 61.5291 8.63851 61.5283 8.66701 61.527C8.72401 61.5244 8.80941 61.5203 8.92084 61.514C9.14373 61.5014 9.47064 61.4803 9.88261 61.4461C10.7069 61.3778 11.8699 61.2575 13.2206 61.0501C15.9304 60.634 19.3583 59.8725 22.3178 58.4975C25.2902 57.1165 27.6718 55.1735 28.5005 52.4571C29.3242 49.7572 28.6793 46.0699 25.0768 41.0371C21.379 35.871 20.5005 31.9515 21.58 28.994C22.6544 26.0506 25.5684 24.3443 28.7426 23.3455C31.9433 22.3384 35.5869 21.9925 38.4069 21.8942C39.8217 21.8449 41.0391 21.8577 41.9038 21.8828C42.3363 21.8953 42.681 21.911 42.9185 21.9236C43.0372 21.9299 43.1292 21.9354 43.192 21.9394C43.2234 21.9414 43.2475 21.943 43.264 21.9441L43.283 21.9455L43.2896 21.9459Z" fill="#733439"/>
</svg>
